<svg width="174" height="42" xmlns="http://www.w3.org/2000/svg"><path d="M57.164 25.377c-.316.698-.788 1.217-1.418 1.561s-1.365.513-2.202.513c-.888 0-1.697-.138-2.43-.418a5.298 5.298 0 01-1.89-1.201c-.527-.522-.934-1.173-1.224-1.953-.288-.78-.435-1.65-.434-2.613 0-.942.137-1.812.4-2.602.267-.794.642-1.475 1.134-2.046a5.046 5.046 0 011.828-1.338c.73-.317 1.549-.475 2.45-.475.524 0 .992.051 1.406.156.41.103.774.255 1.076.453.302.202.56.423.778.665.213.246.413.535.595.866l.002-.462c.023-.496.183-.875.47-1.136.291-.258.669-.392 1.134-.392.53.002.934.18 1.21.536.28.358.417.875.416 1.556l-.005 9.563c-.001 2.014-.57 3.57-1.708 4.67-1.133 1.096-2.735 1.647-4.803 1.647a12.682 12.682 0 01-2.48-.247c-.805-.162-1.43-.365-1.87-.605-.48-.257-.722-.616-.722-1.083a1.14 1.14 0 01.331-.807 1.07 1.07 0 01.888-.34c.027.004.05.005.069.005.021 0 .045.001.068.005l.074.014c.025.002.05.013.075.02l.075.024c.04.018.21.07.507.161.3.091.51.153.63.188.121.034.308.08.568.142a5.606 5.606 0 001.44.17c.283 0 .545-.015.792-.044.242-.027.478-.073.702-.135a2.86 2.86 0 001.118-.578c.159-.132.295-.289.412-.465.114-.179.212-.378.292-.597.078-.22.14-.465.181-.74.04-.273.061-.567.063-.883l.002-1.755zm-.805-1.168c.54-.65.806-1.65.807-3.009.001-1.335-.227-2.367-.68-3.099-.457-.733-1.22-1.093-2.288-1.094-.547 0-1.024.108-1.426.327a2.37 2.37 0 00-.939.92c-.222.392-.39.831-.497 1.31a7.353 7.353 0 00-.163 1.603c0 1.319.275 2.318.826 2.999.55.68 1.283 1.025 2.194 1.033.904-.011 1.623-.344 2.166-.99zm5.797-1.631c.125-.41.334-.761.623-1.057a3.47 3.47 0 011.027-.716c.392-.18.904-.323 1.53-.433a16.76 16.76 0 011.985-.215 44.669 44.669 0 012.536-.056v-.895c.001-1.426-.705-2.14-2.115-2.141a6.61 6.61 0 00-1.452.174c-.517.115-.898.217-1.147.303a20.82 20.82 0 00-1.005.393.933.933 0 01-.132.042.792.792 0 01-.129.025c-.043.005-.083.005-.124.005-.309 0-.57-.132-.785-.397a1.372 1.372 0 01-.321-.883c0-.205.05-.398.15-.566.1-.169.253-.306.461-.405 1.375-.654 2.929-.98 4.66-.98.79 0 1.492.09 2.11.27a4.599 4.599 0 011.642.84c.476.38.844.898 1.1 1.55.255.65.385 1.424.385 2.32l-.004 5.983c0 .543-.16.97-.474 1.272a1.55 1.55 0 01-1.106.453c-.277 0-.536-.066-.785-.2-.547-.3-.82-.812-.82-1.542v-.349a3.19 3.19 0 01-1.412 1.653c-.662.382-1.437.573-2.332.573-1.237-.002-2.254-.32-3.053-.963-.8-.636-1.2-1.504-1.2-2.598.003-.562.064-1.051.187-1.46zm5.74 2.726a3.243 3.243 0 001.68-1.737 3.52 3.52 0 00.267-1.363l.001-.41c-.539 0-.988.001-1.35.01-.36.01-.724.03-1.091.063-.37.032-.67.078-.899.135a4.158 4.158 0 00-.654.232 1.24 1.24 0 00-.476.354c-.115.141-.2.31-.261.501a2.266 2.266 0 00-.096.68c0 .556.158.99.477 1.306.32.314.753.473 1.301.473a2.72 2.72 0 001.1-.244zm7.954 1.627c-.29-.347-.433-.85-.432-1.504l.005-8.505c0-.65.15-1.136.45-1.463.296-.326.719-.49 1.266-.49.522 0 .946.145 1.267.434.323.29.487.703.487 1.234l-.001.496c.698-1.568 2.058-2.35 4.08-2.348 2.115 0 3.444.906 3.993 2.715.812-1.808 2.313-2.71 4.503-2.708 1.303 0 2.355.398 3.157 1.195.803.795 1.208 1.962 1.207 3.494l-.003 5.958c-.001.657-.153 1.158-.452 1.505-.3.35-.73.522-1.292.522-.54 0-.959-.175-1.262-.524-.303-.347-.453-.848-.452-1.504l.003-5.858c0-.814-.195-1.437-.59-1.873-.394-.435-.928-.654-1.598-.654-.82 0-1.498.294-2.032.888-.535.591-.805 1.41-.805 2.458l-.002 5.036c-.002.655-.153 1.156-.455 1.503-.302.35-.737.521-1.303.521-.537 0-.955-.174-1.254-.523-.298-.347-.448-.848-.446-1.504l.004-5.72c0-.872-.193-1.533-.578-1.985-.387-.453-.921-.678-1.609-.678-.846-.002-1.526.27-2.04.814-.515.54-.772 1.285-.772 2.23l-.003 5.337c-.002.653-.157 1.155-.467 1.502-.314.351-.754.521-1.33.521-.54.001-.951-.171-1.244-.522zm23.43-1.027c-1.206-1.138-1.807-2.73-1.807-4.777.002-1.163.25-2.218.756-3.17.5-.956 1.238-1.72 2.208-2.295.97-.576 2.083-.863 3.345-.863.988.002 1.858.163 2.611.488.752.32 1.356.768 1.804 1.332a5.95 5.95 0 011.01 1.903 7.68 7.68 0 01.354 2.302c0 .329-.09.593-.27.782-.177.192-.436.289-.777.289l-7.584-.005c.106 2.228 1.255 3.344 3.442 3.346 1.08 0 2.156-.408 3.233-1.23a.759.759 0 01.499-.185c.14 0 .278.038.413.11.138.077.255.17.354.287.102.116.182.252.243.405a1.193 1.193 0 01.089.565l-.014.106a.652.652 0 01-.023.106.768.768 0 01-.046.098c-.017.034-.031.067-.049.101-.02.032-.038.065-.062.099a1.453 1.453 0 01-.174.188c-1.304 1.159-2.909 1.739-4.814 1.737-1.956-.01-3.536-.584-4.741-1.72zm7.36-5.793c-.148-2.122-1.076-3.185-2.783-3.185-.88 0-1.568.305-2.066.92-.499.612-.777 1.368-.833 2.262l5.682.003zm5.95 6.835c-.311-.349-.466-.852-.465-1.51l.005-8.28-1.069-.002c-.83-.016-1.244-.373-1.244-1.07 0-.2.036-.373.107-.53a.893.893 0 01.365-.384c.176-.105.4-.157.672-.157h.027l1.143.002V13.96c.002-1.625.375-2.807 1.123-3.545.745-.736 1.861-1.103 3.347-1.103l1.467.001c.33.001.596.134.796.403.199.272.297.58.297.93 0 .347-.095.64-.286.88-.193.24-.462.36-.81.36h-.908c-.612 0-1.024.154-1.237.465-.21.31-.32.98-.32 2.009v.66h1.555c.365 0 .65.095.853.28.203.186.303.45.303.79 0 .713-.41 1.071-1.233 1.071l-1.478-.002-.005 8.281c0 .657-.151 1.16-.454 1.51-.302.355-.729.531-1.276.531-.54-.001-.964-.18-1.275-.535zm9.58.171c-.867-.343-1.565-.814-2.093-1.41a6.069 6.069 0 01-1.207-2.025 7.147 7.147 0 01-.407-2.444c0-.862.136-1.676.406-2.437a6.144 6.144 0 011.2-2.045c.532-.603 1.23-1.077 2.096-1.432.869-.35 1.853-.525 2.956-.525 1.079.003 2.042.17 2.896.507.853.333 1.551.796 2.088 1.386.538.59.952 1.27 1.238 2.041.284.77.43 1.608.428 2.513a7 7 0 01-.413 2.401 6.29 6.29 0 01-1.204 2.03c-.526.602-1.22 1.076-2.087 1.432-.869.35-1.852.527-2.955.527-1.096-.002-2.077-.177-2.942-.52zm5.268-2.846c.547-.725.822-1.733.824-3.025 0-1.328-.27-2.353-.813-3.078-.541-.728-1.32-1.09-2.33-1.091-1.013 0-1.79.362-2.332 1.09-.543.723-.816 1.75-.817 3.075-.001 1.285.274 2.292.818 3.022.547.732 1.322 1.096 2.326 1.096s1.777-.361 2.324-1.089zm7.175 2.126c-.85-.83-1.274-2.007-1.272-3.533l.003-5.832c0-.655.152-1.158.462-1.506.304-.346.745-.52 1.318-.52.538 0 .951.174 1.242.52.289.35.435.853.434 1.508l-.004 5.807c0 .82.206 1.448.62 1.88.414.43.946.646 1.593.646.789 0 1.46-.306 2.021-.916.56-.617.84-1.405.84-2.377l.004-5.036c0-.655.154-1.157.459-1.505.308-.35.745-.524 1.307-.522.548 0 .964.175 1.256.525.291.347.434.85.433 1.504l-.005 8.693c0 .58-.153 1.02-.459 1.318-.309.299-.739.447-1.294.447-.54 0-.958-.148-1.257-.449-.296-.297-.447-.734-.447-1.304v-.362c-.73 1.508-2.095 2.263-4.093 2.261-1.259 0-2.311-.416-3.161-1.247zm13.402.583c-.29-.35-.436-.852-.434-1.507l.006-8.692c0-.582.153-1.02.461-1.318.306-.3.736-.45 1.293-.45.538 0 .956.151 1.249.45.294.298.441.733.441 1.305v.302c.748-1.502 2.154-2.25 4.219-2.25 1.253.002 2.283.413 3.1 1.24.815.824 1.225 2.004 1.224 3.538l-.003 5.883c-.002.655-.156 1.158-.463 1.504s-.747.522-1.319.522c-.538 0-.953-.176-1.243-.524-.292-.348-.435-.85-.433-1.504l.002-5.858c0-.812-.209-1.436-.626-1.874-.418-.433-.952-.652-1.599-.653-.782 0-1.449.308-2.008.92-.56.613-.84 1.405-.842 2.374l-.002 5.087c0 .655-.154 1.156-.46 1.505-.31.346-.748.523-1.319.523-.539 0-.956-.176-1.244-.524zm14.592-1.056c-.984-1.19-1.476-2.759-1.476-4.709.002-1.979.517-3.532 1.545-4.65s2.37-1.678 4.015-1.676c1.885.001 3.199.68 3.945 2.042l.003-5.398c.002-.653.152-1.158.458-1.506.31-.347.751-.52 1.32-.52.539 0 .954.173 1.244.522.289.348.436.853.435 1.506l-.01 13.867c0 .657-.157 1.172-.473 1.557-.317.378-.744.57-1.282.57-.533 0-.945-.15-1.244-.45-.297-.299-.447-.712-.447-1.245l.002-.334c-.774 1.475-2.146 2.214-4.122 2.212-1.62 0-2.927-.597-3.913-1.788zm7.276-1.503c.49-.713.736-1.762.737-3.139.001-1.261-.262-2.263-.788-3.009-.526-.748-1.3-1.12-2.32-1.122-.696 0-1.276.199-1.74.597a3.191 3.191 0 00-.983 1.5c-.192.599-.287 1.279-.287 2.043 0 .391.028.774.084 1.152.06.376.16.75.305 1.125.145.373.326.702.546.982.22.28.505.51.853.685a2.6 2.6 0 001.18.261c1.12.002 1.925-.356 2.413-1.075z" fill="#353245"/><g transform="translate(-742.17 -544.959) scale(1.02614)"><linearGradient y2=".5" x2="1" y1=".5" x1="0" id="a"><stop stop-color="#0EB568" offset=".001"/><stop stop-color="#10B669" offset=".007"/><stop stop-color="#36CC83" offset=".153"/><stop stop-color="#57DF99" offset=".304"/><stop stop-color="#6FEDAA" offset=".461"/><stop stop-color="#81F7B6" offset=".624"/><stop stop-color="#8CFDBD" offset=".797"/><stop stop-color="#8FFFBF" offset="1"/></linearGradient><path d="M763.988 551.584c-.08 11.18-9.164 20.215-20.36 20.215-11.246 0-20.361-9.114-20.361-20.362 0-11.243 9.115-20.36 20.36-20.36h13.194c1.14 0 2.065.926 2.065 2.064 0 .108-.127.691-.426 1.196-1.272 2.16-4.668 6.803-4.668 6.803a2.048 2.048 0 01-1.478.622h-8.688c-5.345 0-9.677 4.331-9.677 9.675 0 5.345 4.332 9.678 9.677 9.678a9.661 9.661 0 007.913-4.107l.27-.397a2.065 2.065 0 00-1.04-3.022l-.633-.32a2.068 2.068 0 01-.962-1.748c0-1.142.924-2.063 2.064-2.063l1.858-.014h7.142l1.69.013c1.14 0 2.063.922 2.063 2.063l-.003.064z" fill="url(#a)"/><linearGradient y2=".5" x2="1" y1=".5" x1="0" id="b"><stop stop-color="#8FFFBF" offset="0"/><stop stop-color="#86FAB9" offset=".14"/><stop stop-color="#6FEDA9" offset=".363"/><stop stop-color="#49D78F" offset=".644"/><stop stop-color="#14B86C" offset=".967"/><stop stop-color="#0EB568" offset="1"/></linearGradient><path d="M761.928 549.457l-1.69-.013h-1.473c-.382 10.86-7.432 17.593-17.792 17.145-9.155-.396-16.708-6.923-17.695-15.825-.007.226-.013.45-.013.674 0 11.248 9.115 20.362 20.36 20.362 11.197 0 20.282-9.036 20.36-20.215l.005-.064a2.059 2.059 0 00-2.062-2.064z" fill="url(#b)"/><linearGradient y2=".5" x2="1" y1=".5" x1="0" id="c"><stop stop-color="#8FFFBF" offset="0"/><stop stop-color="#6EF6AE" offset=".189"/><stop stop-color="#4FED9F" offset=".405"/><stop stop-color="#39E794" offset=".616"/><stop stop-color="#2CE38D" offset=".818"/><stop stop-color="#27E28B" offset="1"/></linearGradient><path d="M743.627 561.115c-5.345 0-9.677-4.333-9.677-9.678 0-5.344 4.332-9.675 9.677-9.675h8.688a2.05 2.05 0 001.478-.622s3.396-4.644 4.668-6.803c.299-.505.426-1.088.426-1.196a2.065 2.065 0 00-2.065-2.064h-13.195c-4.615 0-8.87 1.537-12.285 4.124a15.006 15.006 0 00-5.291 11.453c0 8.307 6.734 15.041 15.04 15.041 1.415 0 2.547-.222 3.45-.628a9.847 9.847 0 01-.914.048z" fill="url(#c)"/><linearGradient y2=".5" x2="1" y1=".5" x1="0" id="d"><stop stop-color="#0EB568" offset="0"/><stop stop-color="#20BF74" offset=".079"/><stop stop-color="#48D68F" offset=".276"/><stop stop-color="#67E8A4" offset=".47"/><stop stop-color="#7DF5B3" offset=".659"/><stop stop-color="#8AFCBC" offset=".838"/><stop stop-color="#8FFFBF" offset="1"/></linearGradient><path d="M747.337 536.183c-7.538 0-13.65 6.111-13.65 13.65 0 1.178.153 2.314.432 3.402a9.859 9.859 0 01-.17-1.799c0-5.344 4.333-9.675 9.678-9.675h8.688a2.05 2.05 0 001.478-.622s1.982-2.714 3.486-4.957h-9.942v.001z" fill="url(#d)"/><linearGradient y2=".5" x2="1" y1=".5" x1="0" id="e"><stop stop-color="#8FFFBF" offset="0"/><stop stop-color="#7CF4B2" offset=".081"/><stop stop-color="#55DE98" offset=".277"/><stop stop-color="#36CC83" offset=".471"/><stop stop-color="#20BF74" offset=".658"/><stop stop-color="#13B86B" offset=".838"/><stop stop-color="#0EB568" offset="1"/></linearGradient><path d="M752.723 549.435l-1.472.01a2.063 2.063 0 00-1.101 3.81l.63.322a2.058 2.058 0 011.338 1.94c0 .372-.09.717-.263 1.016a9.616 9.616 0 001.459-5.027l.003.002c0-1.14.924-2.064 2.063-2.064l-2.657-.009z" fill="url(#e)"/></g></svg>